G04 Layer_Physical_Order=2*
G04 Layer_Color=16711680*
%FSLAX44Y44*%
%MOMM*%
G71*
G01*
G75*
%ADD20R,1.5000X1.5000*%
%ADD21C,1.5000*%
%ADD22C,0.4000*%
G36*
X871500Y546000D02*
X736000D01*
Y731000D01*
X871500D01*
Y546000D01*
D02*
G37*
%LPC*%
G36*
X843670Y725709D02*
Y717020D01*
X852359D01*
X852182Y718371D01*
X851170Y720813D01*
X849561Y722911D01*
X847463Y724520D01*
X845021Y725531D01*
X843670Y725709D01*
D02*
G37*
G36*
X841130D02*
X839779Y725531D01*
X837337Y724520D01*
X835239Y722911D01*
X833630Y720813D01*
X832618Y718371D01*
X832441Y717020D01*
X841130D01*
Y725709D01*
D02*
G37*
G36*
X784420D02*
Y717020D01*
X793109D01*
X792932Y718371D01*
X791920Y720813D01*
X790311Y722911D01*
X788213Y724520D01*
X785771Y725531D01*
X784420Y725709D01*
D02*
G37*
G36*
X781880D02*
X780529Y725531D01*
X778087Y724520D01*
X775989Y722911D01*
X774380Y720813D01*
X773368Y718371D01*
X773191Y717020D01*
X781880D01*
Y725709D01*
D02*
G37*
G36*
X852359Y714480D02*
X843670D01*
Y705791D01*
X845021Y705968D01*
X847463Y706980D01*
X849561Y708589D01*
X851170Y710687D01*
X852182Y713129D01*
X852359Y714480D01*
D02*
G37*
G36*
X841130D02*
X832441D01*
X832618Y713129D01*
X833630Y710687D01*
X835239Y708589D01*
X837337Y706980D01*
X839779Y705968D01*
X841130Y705791D01*
Y714480D01*
D02*
G37*
G36*
X793109D02*
X784420D01*
Y705791D01*
X785771Y705968D01*
X788213Y706980D01*
X790311Y708589D01*
X791920Y710687D01*
X792932Y713129D01*
X793109Y714480D01*
D02*
G37*
G36*
X781880D02*
X773191D01*
X773368Y713129D01*
X774380Y710687D01*
X775989Y708589D01*
X778087Y706980D01*
X780529Y705968D01*
X781880Y705791D01*
Y714480D01*
D02*
G37*
G36*
X827040Y725790D02*
X806960D01*
Y705710D01*
X827040D01*
Y725790D01*
D02*
G37*
G36*
X767790D02*
X747710D01*
Y705710D01*
X767790D01*
Y725790D01*
D02*
G37*
G36*
X832920Y571209D02*
Y562520D01*
X841609D01*
X841432Y563871D01*
X840420Y566313D01*
X838811Y568411D01*
X836713Y570020D01*
X834271Y571032D01*
X832920Y571209D01*
D02*
G37*
G36*
X830380D02*
X829029Y571032D01*
X826587Y570020D01*
X824489Y568411D01*
X822880Y566313D01*
X821868Y563871D01*
X821691Y562520D01*
X830380D01*
Y571209D01*
D02*
G37*
G36*
X841609Y559980D02*
X832920D01*
Y551291D01*
X834271Y551468D01*
X836713Y552480D01*
X838811Y554089D01*
X840420Y556187D01*
X841432Y558629D01*
X841609Y559980D01*
D02*
G37*
G36*
X830380D02*
X821691D01*
X821868Y558629D01*
X822880Y556187D01*
X824489Y554089D01*
X826587Y552480D01*
X829029Y551468D01*
X830380Y551291D01*
Y559980D01*
D02*
G37*
G36*
X816290Y571290D02*
X796210D01*
Y551210D01*
X816290D01*
Y571290D01*
D02*
G37*
%LPD*%
D20*
X817000Y715750D02*
D03*
X757750D02*
D03*
X806250Y561250D02*
D03*
D21*
X842400Y715750D02*
D03*
X783150D02*
D03*
X831650Y561250D02*
D03*
D22*
X794000Y668500D02*
D03*
X826000Y633000D02*
D03*
M02*
