G04 Layer_Color=32768*
%FSLAX44Y44*%
%MOMM*%
G71*
G01*
G75*
%ADD25C,0.1000*%
%ADD40C,0.0762*%
%ADD41C,0.2540*%
%ADD42C,0.5000*%
%ADD43C,0.5080*%
D25*
X812000Y575750D02*
X844000D01*
X812000Y592750D02*
X844000D01*
Y575750D02*
Y592750D01*
X812000Y575750D02*
Y592750D01*
X813000Y594000D02*
Y608000D01*
X843000Y594000D02*
Y608000D01*
X813000D02*
X843000D01*
X813000Y594000D02*
X843000D01*
X758250Y695000D02*
X772250D01*
X758250Y665000D02*
X772250D01*
Y695000D01*
X758250Y665000D02*
Y695000D01*
X743000D02*
X757000D01*
X743000Y665000D02*
X757000D01*
Y695000D01*
X743000Y665000D02*
Y695000D01*
X819500Y687000D02*
Y701000D01*
X789500Y687000D02*
Y701000D01*
Y687000D02*
X819500D01*
X789500Y701000D02*
X819500D01*
X846250Y555250D02*
Y587250D01*
X863250Y555250D02*
Y587250D01*
X846250Y555250D02*
X863250D01*
X846250Y587250D02*
X863250D01*
X848000Y641500D02*
X862000D01*
X848000Y611500D02*
X862000D01*
Y641500D01*
X848000Y611500D02*
Y641500D01*
X823500Y672500D02*
X855500D01*
X823500Y689500D02*
X855500D01*
Y672500D02*
Y689500D01*
X823500Y672500D02*
Y689500D01*
Y654250D02*
X855500D01*
X823500Y671250D02*
X855500D01*
Y654250D02*
Y671250D01*
X823500Y654250D02*
Y671250D01*
X778750Y591500D02*
X810750D01*
X778750Y608500D02*
X810750D01*
Y591500D02*
Y608500D01*
X778750Y591500D02*
Y608500D01*
X743000Y620750D02*
X769000D01*
X743000Y663750D02*
X769000D01*
X743000Y620750D02*
Y663750D01*
X769000Y620750D02*
Y663750D01*
D40*
X811500Y609500D02*
Y644500D01*
X773500Y609500D02*
X811500D01*
X773500D02*
Y644500D01*
X811500D01*
X771340Y547815D02*
X791660D01*
Y588455D01*
X771340D02*
X791660D01*
X771340Y547815D02*
Y588455D01*
X812490Y609180D02*
X845510D01*
X812490D02*
Y649820D01*
X845510D01*
Y609180D02*
Y649820D01*
X817570Y651990D02*
Y685010D01*
X776930Y651990D02*
X817570D01*
X776930D02*
Y685010D01*
X817570D01*
D41*
X828000Y584250D02*
D03*
Y601000D02*
D03*
X765250Y680000D02*
D03*
X750000D02*
D03*
X804500Y694000D02*
D03*
X854750Y571250D02*
D03*
X855000Y626500D02*
D03*
X839500Y681000D02*
D03*
Y662750D02*
D03*
X794750Y600000D02*
D03*
D42*
X792500Y627000D02*
D03*
X829000Y629500D02*
D03*
X797250Y668500D02*
D03*
D43*
X781500Y567500D02*
D03*
X756000Y642250D02*
D03*
Y580500D02*
D03*
M02*
