G04 Layer_Color=16711935*
%FSLAX44Y44*%
%MOMM*%
G71*
G01*
G75*
%ADD39C,0.0500*%
%ADD40C,0.0762*%
D39*
X791589Y637600D02*
G03*
X791589Y637600I-1689J0D01*
G01*
X840779Y632700D02*
G03*
X840779Y632700I-2078J0D01*
G01*
X796128Y678200D02*
G03*
X796128Y678200I-2078J0D01*
G01*
X834000Y591000D02*
X839000D01*
Y577500D02*
Y591000D01*
X834000Y577500D02*
Y591000D01*
Y577500D02*
X839000D01*
X817000Y591000D02*
X822000D01*
Y577500D02*
Y591000D01*
X817000Y577500D02*
X822000D01*
X817000D02*
Y591000D01*
X822000Y577510D02*
X834000D01*
X822000D02*
X834000Y577515D01*
X822000Y590985D02*
X834000Y590990D01*
X822000Y590985D02*
X834000Y590990D01*
X786738Y613238D02*
Y640762D01*
X798262D01*
Y613238D02*
Y640762D01*
X786738Y613238D02*
X798262D01*
X786000Y641500D02*
X799000D01*
X798262Y640762D02*
X799000Y641500D01*
X786000D02*
X786738Y640762D01*
X799000Y612500D02*
Y641500D01*
X798262Y613238D02*
X799000Y612500D01*
X786000D02*
X786738Y613238D01*
X786000Y612500D02*
Y641500D01*
Y612500D02*
X799000D01*
X784248Y634100D02*
Y638900D01*
X778500D02*
X786000Y638900D01*
X778500Y634100D02*
X786000D01*
X784248Y615100D02*
Y619900D01*
X778500Y615100D02*
X786000Y615100D01*
X781758Y615100D02*
Y619900D01*
X778500D02*
X786000D01*
X803242Y624600D02*
Y629400D01*
X799000Y624600D02*
X806500D01*
X800752D02*
Y629400D01*
X799000D02*
X806500D01*
X781758Y634100D02*
Y638900D01*
X781506Y634100D02*
Y638900D01*
X803494Y624600D02*
Y629400D01*
X781506Y615100D02*
Y619900D01*
X780597Y634100D02*
Y638900D01*
Y615100D02*
Y619900D01*
X804403Y624600D02*
Y629400D01*
X806500Y624600D02*
Y629400D01*
X778500Y615100D02*
Y619900D01*
Y634100D02*
Y638900D01*
X819500Y596500D02*
Y605500D01*
X822500D01*
Y596500D02*
Y605500D01*
X819500Y596500D02*
X822500D01*
X833500D02*
Y605500D01*
X836500Y596500D02*
Y605500D01*
X833500D02*
X836500D01*
X833500Y596500D02*
X836500D01*
X822500Y596700D02*
X833500D01*
X822500Y605300D02*
X833500D01*
X760750Y688500D02*
X769750D01*
Y685500D02*
Y688500D01*
X760750Y685500D02*
X769750D01*
X760750D02*
Y688500D01*
Y674500D02*
X769750D01*
X760750Y671500D02*
X769750D01*
Y674500D01*
X760750Y671500D02*
Y674500D01*
X760950D02*
Y685500D01*
X769550Y674500D02*
Y685500D01*
X745500Y688500D02*
X754500D01*
Y685500D02*
Y688500D01*
X745500Y685500D02*
X754500D01*
X745500D02*
Y688500D01*
Y674500D02*
X754500D01*
X745500Y671500D02*
X754500D01*
Y674500D01*
X745500Y671500D02*
Y674500D01*
X745700D02*
Y685500D01*
X754300Y674500D02*
Y685500D01*
X813000Y689500D02*
Y698500D01*
X810000Y689500D02*
X813000D01*
X810000D02*
Y698500D01*
X813000D01*
X799000Y689500D02*
Y698500D01*
X796000Y689500D02*
Y698500D01*
Y689500D02*
X799000D01*
X796000Y698500D02*
X799000D01*
Y698300D02*
X810000D01*
X799000Y689700D02*
X810000D01*
X815308Y636692D02*
X842692D01*
Y622308D02*
Y636692D01*
X815308Y622308D02*
X842692D01*
X815308D02*
Y636692D01*
X843500Y621500D02*
Y637500D01*
X842692Y622308D02*
X843500Y621500D01*
X842692Y636692D02*
X843500Y637500D01*
X814500Y621500D02*
X843500D01*
X814500D02*
X815308Y622308D01*
X814500Y621500D02*
Y637500D01*
X815308Y636692D01*
X814500Y637500D02*
X843500D01*
X821500Y615500D02*
Y621500D01*
X817500Y621063D02*
X821500D01*
X817500Y615500D02*
Y621500D01*
Y618564D02*
X821500D01*
X817500Y637500D02*
Y643500D01*
Y637937D02*
X821500D01*
Y637500D02*
Y643500D01*
X817500Y640436D02*
X821500D01*
X827000Y637500D02*
X827000Y643500D01*
X827000Y637937D02*
X831000D01*
X831000Y643500D02*
X831000Y637500D01*
X836500D02*
Y643500D01*
Y637937D02*
X840500D01*
Y637500D02*
Y643500D01*
X827000Y640436D02*
X831000D01*
X840500Y615500D02*
Y621500D01*
X836500Y621063D02*
X840500D01*
X836500Y615500D02*
Y621500D01*
Y618564D02*
X840500D01*
X836500Y640436D02*
X840500D01*
X817500Y640500D02*
X821500D01*
X817500Y618500D02*
X821500D01*
X827000Y640500D02*
X831000D01*
X836500D02*
X840500D01*
X836500Y618500D02*
X840500D01*
X817500Y641413D02*
X821500D01*
X817500Y617588D02*
X821500D01*
X827000Y641413D02*
X831000D01*
X836500Y617588D02*
X840500D01*
X836500Y641413D02*
X840500D01*
X817500Y643500D02*
X821500D01*
X827000D02*
X831000D01*
X817500Y615500D02*
X821500D01*
X836500Y643500D02*
X840500D01*
X836500Y615500D02*
X840500D01*
X861500Y560250D02*
Y565250D01*
X848000Y560250D02*
X861500D01*
X848000Y565250D02*
X861500D01*
X848000Y560250D02*
Y565250D01*
X861500Y577250D02*
Y582250D01*
X848000Y577250D02*
X861500D01*
X848000D02*
Y582250D01*
X861500D01*
X848010Y565250D02*
Y577250D01*
X848015Y565250D01*
X861485Y577250D02*
X861490Y565250D01*
X861485Y577250D02*
X861490Y565250D01*
X811250Y676000D02*
Y680000D01*
Y666500D02*
Y670500D01*
X783250Y676000D02*
Y680000D01*
X811250Y657000D02*
Y661000D01*
X783250Y666500D02*
Y670500D01*
Y657000D02*
Y661000D01*
X785338Y676000D02*
Y680000D01*
X809163Y676000D02*
Y680000D01*
Y666500D02*
Y670500D01*
X785338Y666500D02*
Y670500D01*
X809163Y657000D02*
Y661000D01*
X785338Y657000D02*
Y661000D01*
X786250Y676000D02*
Y680000D01*
X808250Y676000D02*
Y680000D01*
Y666500D02*
Y670500D01*
X786250Y666500D02*
Y670500D01*
X808250Y657000D02*
Y661000D01*
X786250Y657000D02*
Y661000D01*
X786314Y676000D02*
Y680000D01*
Y666500D02*
Y670500D01*
X805250Y676000D02*
X811250D01*
X805250Y680000D02*
X811250D01*
X805687Y676000D02*
Y680000D01*
X808186Y676000D02*
Y680000D01*
X783250D02*
X789250D01*
X788813Y676000D02*
Y680000D01*
X783250Y676000D02*
X789250D01*
X783250Y670500D02*
X789250Y670500D01*
X788813Y666500D02*
Y670500D01*
X783250Y666500D02*
X789250Y666500D01*
X808186Y666500D02*
Y670500D01*
X805250Y666500D02*
X811250Y666500D01*
X805687Y666500D02*
Y670500D01*
X805250D02*
X811250Y670500D01*
X786314Y657000D02*
Y661000D01*
X808186Y657000D02*
Y661000D01*
X805250Y657000D02*
X811250D01*
X805687D02*
Y661000D01*
X805250D02*
X811250D01*
X783250D02*
X789250D01*
X788813Y657000D02*
Y661000D01*
X783250Y657000D02*
X789250D01*
X805250Y654000D02*
Y683000D01*
X789250Y654000D02*
Y683000D01*
X790058Y682192D01*
X804442D02*
X805250Y683000D01*
X789250D02*
X805250D01*
X789250Y654000D02*
X790058Y654808D01*
X789250Y654000D02*
X805250D01*
X804442Y654808D02*
X805250Y654000D01*
X790058Y654808D02*
X804442D01*
Y682192D01*
X790058D02*
X804442D01*
X790058Y654808D02*
Y682192D01*
X850500Y635000D02*
X859500D01*
Y632000D02*
Y635000D01*
X850500Y632000D02*
X859500D01*
X850500D02*
Y635000D01*
Y621000D02*
X859500D01*
X850500Y618000D02*
X859500D01*
Y621000D01*
X850500Y618000D02*
Y621000D01*
X850700D02*
Y632000D01*
X859300Y621000D02*
Y632000D01*
X845500Y687750D02*
X850500D01*
Y674250D02*
Y687750D01*
X845500Y674250D02*
Y687750D01*
Y674250D02*
X850500D01*
X828500Y687750D02*
X833500D01*
Y674250D02*
Y687750D01*
X828500Y674250D02*
X833500D01*
X828500D02*
Y687750D01*
X833500Y674260D02*
X845500D01*
X833500D02*
X845500Y674265D01*
X833500Y687735D02*
X845500Y687740D01*
X833500Y687735D02*
X845500Y687740D01*
Y669500D02*
X850500D01*
Y656000D02*
Y669500D01*
X845500Y656000D02*
Y669500D01*
Y656000D02*
X850500D01*
X828500Y669500D02*
X833500D01*
Y656000D02*
Y669500D01*
X828500Y656000D02*
X833500D01*
X828500D02*
Y669500D01*
X833500Y656010D02*
X845500D01*
X833500D02*
X845500Y656015D01*
X833500Y669485D02*
X845500Y669490D01*
X833500Y669485D02*
X845500Y669490D01*
X800750Y606750D02*
X805750D01*
Y593250D02*
Y606750D01*
X800750Y593250D02*
Y606750D01*
Y593250D02*
X805750D01*
X783750Y606750D02*
X788750D01*
Y593250D02*
Y606750D01*
X783750Y593250D02*
X788750D01*
X783750D02*
Y606750D01*
X788750Y593260D02*
X800750D01*
X788750D02*
X800750Y593265D01*
X788750Y606735D02*
X800750Y606740D01*
X788750Y606735D02*
X800750Y606740D01*
D40*
X774134Y550609D02*
X788866D01*
Y584391D01*
X774134D02*
X788866D01*
X774134Y550609D02*
Y584391D01*
X745999Y629752D02*
X765998D01*
X745999Y654752D02*
X765998D01*
X745999Y629752D02*
Y654752D01*
X765998Y629752D02*
Y654752D01*
M02*
