G04 Layer_Physical_Order=1*
G04 Layer_Color=255*
%FSLAX44Y44*%
%MOMM*%
G71*
G01*
G75*
G04:AMPARAMS|DCode=10|XSize=1.3mm|YSize=0.8mm|CornerRadius=0.1mm|HoleSize=0mm|Usage=FLASHONLY|Rotation=90.000|XOffset=0mm|YOffset=0mm|HoleType=Round|Shape=RoundedRectangle|*
%AMROUNDEDRECTD10*
21,1,1.3000,0.6000,0,0,90.0*
21,1,1.1000,0.8000,0,0,90.0*
1,1,0.2000,0.3000,0.5500*
1,1,0.2000,0.3000,-0.5500*
1,1,0.2000,-0.3000,-0.5500*
1,1,0.2000,-0.3000,0.5500*
%
%ADD10ROUNDEDRECTD10*%
G04:AMPARAMS|DCode=11|XSize=0.6mm|YSize=1mm|CornerRadius=0.075mm|HoleSize=0mm|Usage=FLASHONLY|Rotation=270.000|XOffset=0mm|YOffset=0mm|HoleType=Round|Shape=RoundedRectangle|*
%AMROUNDEDRECTD11*
21,1,0.6000,0.8500,0,0,270.0*
21,1,0.4500,1.0000,0,0,270.0*
1,1,0.1500,-0.4250,-0.2250*
1,1,0.1500,-0.4250,0.2250*
1,1,0.1500,0.4250,0.2250*
1,1,0.1500,0.4250,-0.2250*
%
%ADD11ROUNDEDRECTD11*%
G04:AMPARAMS|DCode=12|XSize=1.27mm|YSize=1.27mm|CornerRadius=0.1588mm|HoleSize=0mm|Usage=FLASHONLY|Rotation=90.000|XOffset=0mm|YOffset=0mm|HoleType=Round|Shape=RoundedRectangle|*
%AMROUNDEDRECTD12*
21,1,1.2700,0.9525,0,0,90.0*
21,1,0.9525,1.2700,0,0,90.0*
1,1,0.3175,0.4763,0.4763*
1,1,0.3175,0.4763,-0.4763*
1,1,0.3175,-0.4763,-0.4763*
1,1,0.3175,-0.4763,0.4763*
%
%ADD12ROUNDEDRECTD12*%
G04:AMPARAMS|DCode=13|XSize=1mm|YSize=0.9mm|CornerRadius=0.1125mm|HoleSize=0mm|Usage=FLASHONLY|Rotation=90.000|XOffset=0mm|YOffset=0mm|HoleType=Round|Shape=RoundedRectangle|*
%AMROUNDEDRECTD13*
21,1,1.0000,0.6750,0,0,90.0*
21,1,0.7750,0.9000,0,0,90.0*
1,1,0.2250,0.3375,0.3875*
1,1,0.2250,0.3375,-0.3875*
1,1,0.2250,-0.3375,-0.3875*
1,1,0.2250,-0.3375,0.3875*
%
%ADD13ROUNDEDRECTD13*%
G04:AMPARAMS|DCode=14|XSize=1mm|YSize=0.9mm|CornerRadius=0.1125mm|HoleSize=0mm|Usage=FLASHONLY|Rotation=0.000|XOffset=0mm|YOffset=0mm|HoleType=Round|Shape=RoundedRectangle|*
%AMROUNDEDRECTD14*
21,1,1.0000,0.6750,0,0,0.0*
21,1,0.7750,0.9000,0,0,0.0*
1,1,0.2250,0.3875,-0.3375*
1,1,0.2250,-0.3875,-0.3375*
1,1,0.2250,-0.3875,0.3375*
1,1,0.2250,0.3875,0.3375*
%
%ADD14ROUNDEDRECTD14*%
G04:AMPARAMS|DCode=15|XSize=0.6mm|YSize=1mm|CornerRadius=0.075mm|HoleSize=0mm|Usage=FLASHONLY|Rotation=180.000|XOffset=0mm|YOffset=0mm|HoleType=Round|Shape=RoundedRectangle|*
%AMROUNDEDRECTD15*
21,1,0.6000,0.8500,0,0,180.0*
21,1,0.4500,1.0000,0,0,180.0*
1,1,0.1500,-0.2250,0.4250*
1,1,0.1500,0.2250,0.4250*
1,1,0.1500,0.2250,-0.4250*
1,1,0.1500,-0.2250,-0.4250*
%
%ADD15ROUNDEDRECTD15*%
G04:AMPARAMS|DCode=16|XSize=1.3mm|YSize=0.8mm|CornerRadius=0.1mm|HoleSize=0mm|Usage=FLASHONLY|Rotation=0.000|XOffset=0mm|YOffset=0mm|HoleType=Round|Shape=RoundedRectangle|*
%AMROUNDEDRECTD16*
21,1,1.3000,0.6000,0,0,0.0*
21,1,1.1000,0.8000,0,0,0.0*
1,1,0.2000,0.5500,-0.3000*
1,1,0.2000,-0.5500,-0.3000*
1,1,0.2000,-0.5500,0.3000*
1,1,0.2000,0.5500,0.3000*
%
%ADD16ROUNDEDRECTD16*%
G04:AMPARAMS|DCode=17|XSize=1.45mm|YSize=1.25mm|CornerRadius=0.125mm|HoleSize=0mm|Usage=FLASHONLY|Rotation=180.000|XOffset=0mm|YOffset=0mm|HoleType=Round|Shape=RoundedRectangle|*
%AMROUNDEDRECTD17*
21,1,1.4500,1.0000,0,0,180.0*
21,1,1.2000,1.2500,0,0,180.0*
1,1,0.2500,-0.6000,0.5000*
1,1,0.2500,0.6000,0.5000*
1,1,0.2500,0.6000,-0.5000*
1,1,0.2500,-0.6000,-0.5000*
%
%ADD17ROUNDEDRECTD17*%
G04:AMPARAMS|DCode=18|XSize=2.2mm|YSize=1.5mm|CornerRadius=0.1875mm|HoleSize=0mm|Usage=FLASHONLY|Rotation=90.000|XOffset=0mm|YOffset=0mm|HoleType=Round|Shape=RoundedRectangle|*
%AMROUNDEDRECTD18*
21,1,2.2000,1.1250,0,0,90.0*
21,1,1.8250,1.5000,0,0,90.0*
1,1,0.3750,0.5625,0.9125*
1,1,0.3750,0.5625,-0.9125*
1,1,0.3750,-0.5625,-0.9125*
1,1,0.3750,-0.5625,0.9125*
%
%ADD18ROUNDEDRECTD18*%
%ADD19C,0.2540*%
%ADD20R,1.5000X1.5000*%
%ADD21C,1.5000*%
%ADD22C,0.4000*%
G36*
X777143Y655104D02*
X777628Y654378D01*
X778716Y653651D01*
X780000Y653395D01*
X788500D01*
X789784Y653651D01*
X790872Y654378D01*
X791365Y655115D01*
X794115D01*
Y641859D01*
X789778Y637522D01*
X788604Y638008D01*
Y638750D01*
X788349Y640034D01*
X787622Y641122D01*
X786534Y641849D01*
X785250Y642104D01*
X776750D01*
X775466Y641849D01*
X774378Y641122D01*
X773885Y640385D01*
X769015D01*
X766843Y642557D01*
X766000Y643120D01*
Y649250D01*
X766000D01*
X765811Y649481D01*
X765864Y649750D01*
Y650865D01*
X769500D01*
X770987Y651161D01*
X772247Y652003D01*
X775705Y655462D01*
X777143Y655104D01*
D02*
G37*
G36*
X871500Y546250D02*
X765510D01*
X765027Y547520D01*
X765784Y548652D01*
X766126Y550375D01*
Y554090D01*
X772529D01*
Y553213D01*
X772850Y551602D01*
X773762Y550237D01*
X775127Y549324D01*
X776738Y549004D01*
X786263D01*
X787873Y549324D01*
X789238Y550237D01*
X790151Y551602D01*
X790471Y553213D01*
Y554090D01*
X794725D01*
X795228Y554190D01*
X796210Y553385D01*
Y551210D01*
X816290D01*
Y569865D01*
X816500D01*
X817987Y570161D01*
X819247Y571003D01*
X820747Y572503D01*
X821589Y573763D01*
X821885Y575250D01*
Y575317D01*
X822381Y575415D01*
X822882Y575750D01*
X833118D01*
X833619Y575415D01*
X835000Y575141D01*
X836730D01*
Y584250D01*
X839270D01*
Y575141D01*
X841000D01*
X842381Y575415D01*
X843552Y576198D01*
X844335Y577369D01*
X844428Y577838D01*
X845723D01*
X845915Y576869D01*
X846250Y576368D01*
Y566132D01*
X845915Y565631D01*
X845641Y564250D01*
Y562520D01*
X863859D01*
Y564250D01*
X863585Y565631D01*
X863250Y566132D01*
Y576368D01*
X863585Y576869D01*
X863859Y578250D01*
Y584250D01*
X863585Y585631D01*
X862802Y586802D01*
X861631Y587585D01*
X860250Y587859D01*
X858635D01*
Y596250D01*
X858339Y597737D01*
X857497Y598997D01*
X849635Y606859D01*
Y609890D01*
X850905Y610932D01*
X851125Y610888D01*
X853730D01*
Y618000D01*
X855000D01*
Y619270D01*
X862612D01*
Y621375D01*
X862327Y622805D01*
X862000Y623295D01*
Y629705D01*
X862327Y630195D01*
X862612Y631625D01*
Y638375D01*
X862327Y639805D01*
X861517Y641017D01*
X860305Y641827D01*
X858885Y642110D01*
Y645500D01*
X858589Y646987D01*
X857747Y648247D01*
X853457Y652536D01*
X853876Y653914D01*
X853881Y653915D01*
X855052Y654698D01*
X855835Y655869D01*
X856109Y657250D01*
Y661480D01*
X849500D01*
Y664020D01*
X856109D01*
Y668250D01*
X855835Y669631D01*
X855052Y670802D01*
X854590Y671111D01*
Y672639D01*
X855052Y672948D01*
X855835Y674119D01*
X856109Y675500D01*
Y686500D01*
X855835Y687881D01*
X855052Y689052D01*
X853881Y689835D01*
X852500Y690109D01*
X846500D01*
X845119Y689835D01*
X844618Y689500D01*
X834382D01*
X833881Y689835D01*
X832500Y690109D01*
X826500D01*
X825119Y689835D01*
X823948Y689052D01*
X823487Y689007D01*
X820112Y692382D01*
Y697875D01*
X819827Y699305D01*
X819017Y700517D01*
X818905Y701661D01*
X819747Y702503D01*
X820589Y703763D01*
X820885Y705250D01*
Y705710D01*
X827040D01*
Y725790D01*
X806960D01*
Y705710D01*
X810307D01*
X810793Y704537D01*
X810253Y703997D01*
X809411Y702737D01*
X809169Y701521D01*
X808195Y701327D01*
X807705Y701000D01*
X801295D01*
X800805Y701327D01*
X799375Y701612D01*
X797270D01*
Y694000D01*
X796000D01*
Y692730D01*
X788888D01*
Y690125D01*
X788920Y689965D01*
X787878Y688695D01*
X782549D01*
X779997Y691247D01*
X778737Y692089D01*
X777250Y692385D01*
X772760D01*
X772577Y693305D01*
X771767Y694517D01*
X770555Y695327D01*
X769125Y695612D01*
X761375D01*
X759945Y695327D01*
X758733Y694517D01*
X758386Y693998D01*
X756864D01*
X756517Y694517D01*
X755942Y694902D01*
X755691Y696447D01*
X760497Y701253D01*
X761339Y702513D01*
X761635Y704000D01*
Y705710D01*
X767790D01*
Y725790D01*
X747710D01*
Y705710D01*
X752170D01*
X752696Y704440D01*
X747253Y698997D01*
X746411Y697737D01*
X746115Y696250D01*
Y695610D01*
X744695Y695327D01*
X743483Y694517D01*
X742673Y693305D01*
X742388Y691875D01*
Y685125D01*
X742673Y683695D01*
X743000Y683205D01*
Y676795D01*
X742673Y676305D01*
X742388Y674875D01*
Y672770D01*
X750000D01*
Y670230D01*
X742388D01*
Y668125D01*
X742673Y666695D01*
X743483Y665483D01*
X744695Y664673D01*
X746125Y664388D01*
X747877D01*
X748219Y663118D01*
X747268Y662482D01*
X746430Y661229D01*
X746136Y659750D01*
Y649750D01*
X746189Y649481D01*
X746000Y649250D01*
X746000D01*
Y643434D01*
X745823Y643399D01*
X744563Y642557D01*
X737270Y635264D01*
X736000Y635790D01*
Y731250D01*
X871500D01*
Y546250D01*
D02*
G37*
G36*
X800196Y635156D02*
X800115Y634750D01*
Y632604D01*
X799750D01*
X798466Y632349D01*
X797378Y631622D01*
X796651Y630534D01*
X796395Y629250D01*
Y624750D01*
X796651Y623466D01*
X797378Y622378D01*
X798466Y621651D01*
X799750Y621395D01*
X804242D01*
X804728Y620222D01*
X802003Y617497D01*
X801161Y616237D01*
X800865Y614750D01*
Y608933D01*
X800369Y608835D01*
X799868Y608500D01*
X789632D01*
X789131Y608835D01*
X787750Y609109D01*
X785011D01*
X784332Y610379D01*
X784589Y610763D01*
X784814Y611895D01*
X785250D01*
X786534Y612151D01*
X787622Y612878D01*
X788349Y613966D01*
X788604Y615250D01*
Y619750D01*
X788349Y621034D01*
X787622Y622122D01*
X787346Y622306D01*
X787164Y623920D01*
X799026Y635782D01*
X800196Y635156D01*
D02*
G37*
G36*
X767406Y632615D02*
X773885D01*
X774378Y631878D01*
X775466Y631151D01*
X776750Y630896D01*
X781492D01*
X781979Y629722D01*
X778253Y625997D01*
X777411Y624737D01*
X777115Y623250D01*
Y623104D01*
X776750D01*
X775466Y622849D01*
X774378Y622122D01*
X773651Y621034D01*
X773395Y619750D01*
Y615250D01*
X773651Y613966D01*
X774378Y612878D01*
X774599Y612731D01*
X774723Y611467D01*
X768641Y605385D01*
X766126D01*
Y610625D01*
X765784Y612348D01*
X764808Y613808D01*
X763348Y614784D01*
X761625Y615126D01*
X759885D01*
Y620886D01*
X762000D01*
X763479Y621180D01*
X764732Y622018D01*
X765570Y623271D01*
X765864Y624750D01*
Y631627D01*
X767134Y632669D01*
X767406Y632615D01*
D02*
G37*
G36*
X812673Y595695D02*
X813483Y594483D01*
X813633Y594382D01*
X813626Y593714D01*
X813478Y592990D01*
X812448Y592302D01*
X811665Y591131D01*
X811391Y589750D01*
Y578750D01*
X811417Y578616D01*
X810611Y577635D01*
X809750D01*
X808263Y577339D01*
X807003Y576497D01*
X803503Y572997D01*
X802661Y571737D01*
X802572Y571290D01*
X796210D01*
Y564636D01*
X795253Y563997D01*
X793116Y561860D01*
X790471D01*
Y562738D01*
X790151Y564348D01*
X789238Y565713D01*
X789120Y565792D01*
Y569208D01*
X789238Y569287D01*
X790151Y570652D01*
X790471Y572262D01*
Y581787D01*
X790151Y583398D01*
X789238Y584763D01*
X788039Y585565D01*
X788339Y586013D01*
X788635Y587500D01*
Y591067D01*
X789131Y591165D01*
X789632Y591500D01*
X799868D01*
X800369Y591165D01*
X801750Y590891D01*
X807750D01*
X809131Y591165D01*
X810302Y591948D01*
X811085Y593119D01*
X811359Y594500D01*
Y595788D01*
X812629Y595913D01*
X812673Y595695D01*
D02*
G37*
G36*
X746136Y631483D02*
Y624750D01*
X746430Y623271D01*
X747268Y622018D01*
X748521Y621180D01*
X750000Y620886D01*
X752115D01*
Y615126D01*
X750375D01*
X748652Y614784D01*
X747192Y613808D01*
X746216Y612348D01*
X745873Y610625D01*
Y592375D01*
X746216Y590652D01*
X747192Y589192D01*
X748652Y588216D01*
X750375Y587873D01*
X761625D01*
X763348Y588216D01*
X764808Y589192D01*
X765784Y590652D01*
X766126Y592375D01*
Y597615D01*
X770250D01*
X771737Y597911D01*
X772997Y598753D01*
X776967Y602724D01*
X778141Y602238D01*
Y594500D01*
X778415Y593119D01*
X779198Y591948D01*
X780369Y591165D01*
X780865Y591067D01*
Y589109D01*
X778753Y586997D01*
X778084Y585996D01*
X776738D01*
X775127Y585676D01*
X773762Y584763D01*
X772850Y583398D01*
X772529Y581787D01*
Y572262D01*
X772850Y570652D01*
X773762Y569287D01*
X773880Y569208D01*
Y565792D01*
X773762Y565713D01*
X772850Y564348D01*
X772529Y562738D01*
Y561860D01*
X766126D01*
Y568625D01*
X765784Y570348D01*
X764808Y571808D01*
X763348Y572784D01*
X761625Y573126D01*
X750375D01*
X748652Y572784D01*
X747192Y571808D01*
X746216Y570348D01*
X745873Y568625D01*
Y567280D01*
X744700Y566794D01*
X743385Y568109D01*
Y630391D01*
X744962Y631969D01*
X746136Y631483D01*
D02*
G37*
%LPC*%
G36*
X843670Y725709D02*
Y717020D01*
X852359D01*
X852182Y718371D01*
X851170Y720813D01*
X849561Y722911D01*
X847463Y724520D01*
X845021Y725531D01*
X843670Y725709D01*
D02*
G37*
G36*
X841130D02*
X839779Y725531D01*
X837337Y724520D01*
X835239Y722911D01*
X833630Y720813D01*
X832618Y718371D01*
X832441Y717020D01*
X841130D01*
Y725709D01*
D02*
G37*
G36*
X784420D02*
Y717020D01*
X793109D01*
X792932Y718371D01*
X791920Y720813D01*
X790311Y722911D01*
X788213Y724520D01*
X785771Y725531D01*
X784420Y725709D01*
D02*
G37*
G36*
X781880D02*
X780529Y725531D01*
X778087Y724520D01*
X775989Y722911D01*
X774380Y720813D01*
X773368Y718371D01*
X773191Y717020D01*
X781880D01*
Y725709D01*
D02*
G37*
G36*
X852359Y714480D02*
X843670D01*
Y705791D01*
X845021Y705968D01*
X847463Y706980D01*
X849561Y708589D01*
X851170Y710687D01*
X852182Y713129D01*
X852359Y714480D01*
D02*
G37*
G36*
X841130D02*
X832441D01*
X832618Y713129D01*
X833630Y710687D01*
X835239Y708589D01*
X837337Y706980D01*
X839779Y705968D01*
X841130Y705791D01*
Y714480D01*
D02*
G37*
G36*
X793109D02*
X784420D01*
Y705791D01*
X785771Y705968D01*
X788213Y706980D01*
X790311Y708589D01*
X791920Y710687D01*
X792932Y713129D01*
X793109Y714480D01*
D02*
G37*
G36*
X781880D02*
X773191D01*
X773368Y713129D01*
X774380Y710687D01*
X775989Y708589D01*
X778087Y706980D01*
X780529Y705968D01*
X781880Y705791D01*
Y714480D01*
D02*
G37*
G36*
X794730Y701612D02*
X792625D01*
X791195Y701327D01*
X789983Y700517D01*
X789173Y699305D01*
X788888Y697875D01*
Y695270D01*
X794730D01*
Y701612D01*
D02*
G37*
G36*
X862612Y616730D02*
X856270D01*
Y610888D01*
X858875D01*
X860305Y611173D01*
X861517Y611983D01*
X862327Y613195D01*
X862612Y614625D01*
Y616730D01*
D02*
G37*
G36*
X832920Y571209D02*
Y562520D01*
X841609D01*
X841432Y563871D01*
X840420Y566313D01*
X838811Y568411D01*
X836713Y570020D01*
X834271Y571032D01*
X832920Y571209D01*
D02*
G37*
G36*
X830380D02*
X829029Y571032D01*
X826587Y570020D01*
X824489Y568411D01*
X822880Y566313D01*
X821868Y563871D01*
X821691Y562520D01*
X830380D01*
Y571209D01*
D02*
G37*
G36*
X863859Y559980D02*
X856020D01*
Y554641D01*
X860250D01*
X861631Y554915D01*
X862802Y555698D01*
X863585Y556869D01*
X863859Y558250D01*
Y559980D01*
D02*
G37*
G36*
X853480D02*
X845641D01*
Y558250D01*
X845915Y556869D01*
X846698Y555698D01*
X847869Y554915D01*
X849250Y554641D01*
X853480D01*
Y559980D01*
D02*
G37*
G36*
X841609Y559980D02*
X832920D01*
Y551291D01*
X834271Y551468D01*
X836713Y552480D01*
X838811Y554089D01*
X840420Y556187D01*
X841432Y558629D01*
X841609Y559980D01*
D02*
G37*
G36*
X830380D02*
X821691D01*
X821868Y558629D01*
X822880Y556187D01*
X824489Y554089D01*
X826587Y552480D01*
X829029Y551468D01*
X830380Y551291D01*
Y559980D01*
D02*
G37*
%LPD*%
D10*
X838000Y584250D02*
D03*
X818000D02*
D03*
X849500Y681000D02*
D03*
X829500D02*
D03*
X849500Y662750D02*
D03*
X829500D02*
D03*
X804750Y600000D02*
D03*
X784750D02*
D03*
D11*
X804000Y627000D02*
D03*
X781000Y617500D02*
D03*
Y636500D02*
D03*
X810250Y668500D02*
D03*
Y659000D02*
D03*
X784250Y678000D02*
D03*
Y668500D02*
D03*
Y659000D02*
D03*
X810250Y678000D02*
D03*
D12*
X781500Y577025D02*
D03*
Y557975D02*
D03*
D13*
X819500Y601000D02*
D03*
X836500D02*
D03*
X813000Y694000D02*
D03*
X796000D02*
D03*
D14*
X765250Y688500D02*
D03*
Y671500D02*
D03*
X750000Y688500D02*
D03*
Y671500D02*
D03*
X855000Y635000D02*
D03*
Y618000D02*
D03*
D15*
X838500Y616500D02*
D03*
X819500Y642500D02*
D03*
X829000D02*
D03*
X838500D02*
D03*
X819500Y616500D02*
D03*
D16*
X854750Y561250D02*
D03*
Y581250D02*
D03*
D17*
X756000Y629750D02*
D03*
Y654750D02*
D03*
D18*
Y601500D02*
D03*
Y559500D02*
D03*
D19*
X806250Y561250D02*
Y570250D01*
X809750Y573750D01*
X816500D01*
X818000Y575250D01*
Y584250D01*
X798000Y561250D02*
X806250D01*
X794725Y557975D02*
X798000Y561250D01*
X781500Y557975D02*
X794725D01*
X757525D02*
X781500D01*
X756000Y559500D02*
X757525Y557975D01*
X756000Y601500D02*
Y629750D01*
X739500Y566500D02*
X746500Y559500D01*
X756000D01*
X818000Y584250D02*
Y599500D01*
X819250Y600750D01*
Y616250D01*
X804750Y600000D02*
Y614750D01*
X816750Y626750D01*
X834000D01*
X838500Y631250D01*
Y642500D01*
X756000Y601500D02*
X770250D01*
X781000Y612250D01*
Y617500D01*
X781500Y577025D02*
Y584250D01*
X784750Y587500D01*
Y600000D01*
X767406Y636500D02*
X781000D01*
X739500Y566500D02*
Y632000D01*
X811750Y642500D02*
X819500D01*
X829500Y662750D02*
X836250D01*
X839500Y666000D01*
Y677750D01*
X842750Y681000D01*
X849500D01*
X838500Y616500D02*
X842750D01*
X845750Y613500D01*
Y605250D02*
Y613500D01*
Y605250D02*
X854750Y596250D01*
Y581250D02*
Y596250D01*
X848250Y652250D02*
X855000Y645500D01*
Y635000D02*
Y645500D01*
X750000Y688500D02*
X765250D01*
X757750Y704000D02*
Y715750D01*
X750000Y696250D02*
X757750Y704000D01*
X750000Y688500D02*
Y696250D01*
X804000Y627000D02*
Y634750D01*
X811750Y642500D01*
X781000Y617500D02*
Y623250D01*
X777250Y688500D02*
X780940Y684810D01*
X765250Y688500D02*
X777250D01*
X810250Y668500D02*
X818500D01*
X821250Y671250D01*
Y678250D01*
X824000Y681000D01*
X829500D01*
X813000Y694000D02*
X821250Y685750D01*
Y678250D02*
Y685750D01*
X810250Y659000D02*
X818500D01*
X822250Y662750D01*
X829500D01*
X781000Y623250D02*
X797199Y639449D01*
X778000Y678000D02*
X784250D01*
X774500Y674500D02*
X778000Y678000D01*
X817000Y705250D02*
Y715750D01*
X813000Y701250D02*
X817000Y705250D01*
X813000Y694000D02*
Y701250D01*
X750000Y671500D02*
X765250D01*
X836500Y585750D02*
X838000Y584250D01*
X836500Y596250D02*
Y601000D01*
Y596250D02*
X838000Y594750D01*
Y584250D02*
Y594750D01*
X780940Y684810D02*
X808190D01*
X810250Y682750D01*
Y678000D02*
Y682750D01*
X784250Y659000D02*
X798000D01*
X801250Y674750D02*
X804500Y678000D01*
X810250D01*
X819500Y642500D02*
Y649500D01*
X822250Y652250D01*
X848250D01*
X798000Y640250D02*
Y659000D01*
X801250Y662250D01*
Y674750D01*
X756000Y654750D02*
X769500D01*
X774500Y659750D01*
Y674500D01*
X739500Y632000D02*
X747310Y639810D01*
X764096D01*
X767406Y636500D01*
X784250Y668500D02*
X794000D01*
X829000Y636000D02*
Y642500D01*
X826000Y633000D02*
X829000Y636000D01*
D20*
X817000Y715750D02*
D03*
X757750D02*
D03*
X806250Y561250D02*
D03*
D21*
X842400Y715750D02*
D03*
X783150D02*
D03*
X831650Y561250D02*
D03*
D22*
X794000Y668500D02*
D03*
X826000Y633000D02*
D03*
M02*
