G04 Layer_Physical_Order=1*
G04 Layer_Color=255*
%FSLAX44Y44*%
%MOMM*%
G71*
G01*
G75*
%ADD10O,2.2000X0.6000*%
G04:AMPARAMS|DCode=11|XSize=1.3mm|YSize=1mm|CornerRadius=0.125mm|HoleSize=0mm|Usage=FLASHONLY|Rotation=0.000|XOffset=0mm|YOffset=0mm|HoleType=Round|Shape=RoundedRectangle|*
%AMROUNDEDRECTD11*
21,1,1.3000,0.7500,0,0,0.0*
21,1,1.0500,1.0000,0,0,0.0*
1,1,0.2500,0.5250,-0.3750*
1,1,0.2500,-0.5250,-0.3750*
1,1,0.2500,-0.5250,0.3750*
1,1,0.2500,0.5250,0.3750*
%
%ADD11ROUNDEDRECTD11*%
G04:AMPARAMS|DCode=12|XSize=1.4mm|YSize=1mm|CornerRadius=0.125mm|HoleSize=0mm|Usage=FLASHONLY|Rotation=180.000|XOffset=0mm|YOffset=0mm|HoleType=Round|Shape=RoundedRectangle|*
%AMROUNDEDRECTD12*
21,1,1.4000,0.7500,0,0,180.0*
21,1,1.1500,1.0000,0,0,180.0*
1,1,0.2500,-0.5750,0.3750*
1,1,0.2500,0.5750,0.3750*
1,1,0.2500,0.5750,-0.3750*
1,1,0.2500,-0.5750,-0.3750*
%
%ADD12ROUNDEDRECTD12*%
%ADD13C,0.5000*%
%ADD14C,1.0000*%
%ADD15C,1.5000*%
%ADD16R,1.5000X1.5000*%
%ADD17C,1.2700*%
G36*
X1086000Y769000D02*
X1067286D01*
X1066855Y770270D01*
X1068340Y771410D01*
X1069262Y772611D01*
X1072000D01*
X1073967Y773002D01*
X1075634Y774116D01*
X1078384Y776866D01*
X1079498Y778533D01*
X1079889Y780500D01*
Y783636D01*
X1080500D01*
X1081979Y783930D01*
X1083232Y784768D01*
X1084070Y786021D01*
X1084364Y787500D01*
Y795000D01*
X1084070Y796479D01*
X1083750Y796958D01*
Y803542D01*
X1084070Y804021D01*
X1084364Y805500D01*
Y813000D01*
X1084070Y814479D01*
X1083232Y815732D01*
X1082355Y816319D01*
Y818015D01*
X1082732Y818268D01*
X1083570Y819521D01*
X1083864Y821000D01*
Y828500D01*
X1083570Y829979D01*
X1082732Y831232D01*
X1081479Y832070D01*
X1080000Y832364D01*
X1074467D01*
X1073712Y833215D01*
X1074101Y834386D01*
X1080000D01*
X1081479Y834680D01*
X1082732Y835518D01*
X1083570Y836771D01*
X1083864Y838250D01*
Y845750D01*
X1083570Y847229D01*
X1082732Y848483D01*
X1081479Y849320D01*
X1080000Y849614D01*
X1069500D01*
X1068021Y849320D01*
X1066768Y848483D01*
X1066425Y847970D01*
X1064898D01*
X1064622Y848382D01*
X1063369Y849220D01*
X1061890Y849514D01*
X1051390D01*
X1049911Y849220D01*
X1048658Y848382D01*
X1047833Y847149D01*
X1043931D01*
X1043812Y847229D01*
X1041650Y847658D01*
X1025650D01*
X1023488Y847229D01*
X1021656Y846004D01*
X1020431Y844172D01*
X1020002Y842010D01*
X1020431Y839848D01*
X1021656Y838016D01*
X1023488Y836791D01*
X1025650Y836361D01*
X1041650D01*
X1043812Y836791D01*
X1043931Y836871D01*
X1047780D01*
X1047820Y836671D01*
X1048456Y835719D01*
X1048082Y834688D01*
X1047894Y834449D01*
X1043931D01*
X1043812Y834529D01*
X1041650Y834958D01*
X1025650D01*
X1023488Y834529D01*
X1023369Y834449D01*
X1017819D01*
X1010355Y841912D01*
X1010937Y843126D01*
X1012870Y843380D01*
X1015033Y844276D01*
X1016890Y845701D01*
X1018315Y847558D01*
X1019211Y849721D01*
X1019471Y851700D01*
X1020526Y852076D01*
X1020742Y852084D01*
X1021656Y850716D01*
X1023488Y849491D01*
X1025650Y849062D01*
X1032380D01*
Y854710D01*
Y860359D01*
X1025650D01*
X1025053Y860240D01*
X1024427Y861410D01*
X1030477Y867460D01*
X1038040D01*
Y887540D01*
X1017960D01*
Y869477D01*
X1017122Y868639D01*
X1009631D01*
X1009199Y869909D01*
X1009761Y870339D01*
X1011370Y872437D01*
X1012382Y874879D01*
X1012727Y877500D01*
X1012382Y880121D01*
X1011370Y882563D01*
X1009761Y884661D01*
X1007663Y886270D01*
X1005221Y887282D01*
X1002600Y887627D01*
X999979Y887282D01*
X997537Y886270D01*
X995439Y884661D01*
X993830Y882563D01*
X992818Y880121D01*
X992473Y877500D01*
X992818Y874879D01*
X993830Y872437D01*
X995439Y870339D01*
X996001Y869909D01*
X995570Y868639D01*
X970750D01*
X968783Y868248D01*
X967116Y867134D01*
X959116Y859134D01*
X958002Y857467D01*
X957611Y855500D01*
Y836924D01*
X957500D01*
X956021Y836630D01*
X954768Y835792D01*
X953930Y834539D01*
X953636Y833060D01*
Y825560D01*
X953930Y824081D01*
X954768Y822828D01*
X956021Y821990D01*
X957500Y821696D01*
X968000D01*
X969479Y821990D01*
X970732Y822828D01*
X971570Y824081D01*
X971588Y824171D01*
X975369D01*
X975488Y824091D01*
X977650Y823661D01*
X993650D01*
X995812Y824091D01*
X997644Y825316D01*
X998869Y827148D01*
X999298Y829310D01*
X998869Y831472D01*
X997644Y833304D01*
X995812Y834529D01*
X993650Y834958D01*
X977650D01*
X975488Y834529D01*
X975369Y834449D01*
X971588D01*
X971570Y834539D01*
X970732Y835792D01*
X969479Y836630D01*
X968000Y836924D01*
X967889D01*
Y853372D01*
X971074Y856557D01*
X972244Y855931D01*
X972001Y854710D01*
X972431Y852548D01*
X973656Y850716D01*
X975488Y849491D01*
X977650Y849062D01*
X993650D01*
X995812Y849491D01*
X995931Y849571D01*
X1001950D01*
X1002428Y848419D01*
X1001579Y847149D01*
X995931D01*
X995812Y847229D01*
X993650Y847658D01*
X977650D01*
X975488Y847229D01*
X973656Y846004D01*
X972431Y844172D01*
X972001Y842010D01*
X972431Y839848D01*
X973656Y838016D01*
X975488Y836791D01*
X977650Y836361D01*
X993650D01*
X995812Y836791D01*
X995931Y836871D01*
X1000862D01*
X1012056Y825676D01*
X1013724Y824562D01*
X1015690Y824171D01*
X1023369D01*
X1023488Y824091D01*
X1025650Y823661D01*
X1041650D01*
X1043812Y824091D01*
X1043931Y824171D01*
X1047011D01*
X1047369Y823331D01*
X1047463Y822901D01*
X1046693Y821749D01*
X1043931D01*
X1043812Y821829D01*
X1041650Y822259D01*
X1025650D01*
X1023488Y821829D01*
X1021656Y820604D01*
X1020431Y818772D01*
X1020002Y816610D01*
X1020431Y814448D01*
X1021656Y812616D01*
X1023488Y811391D01*
X1025650Y810962D01*
X1041650D01*
X1043812Y811391D01*
X1043931Y811471D01*
X1046640D01*
X1046680Y811271D01*
X1047000Y810792D01*
Y804208D01*
X1046680Y803729D01*
X1046386Y802250D01*
Y794750D01*
X1046680Y793271D01*
X1047518Y792018D01*
X1048771Y791180D01*
X1050250Y790886D01*
X1050861D01*
Y783750D01*
X1051252Y781784D01*
X1052366Y780116D01*
X1053231Y779252D01*
X1053033Y777750D01*
X1053339Y775429D01*
X1054235Y773267D01*
X1055660Y771410D01*
X1057145Y770270D01*
X1056714Y769000D01*
X911500D01*
Y892500D01*
X1086000D01*
Y769000D01*
D02*
G37*
%LPC*%
G36*
X1061890Y866764D02*
X1057910D01*
Y860420D01*
X1065754D01*
Y862900D01*
X1065460Y864379D01*
X1064622Y865632D01*
X1063369Y866470D01*
X1061890Y866764D01*
D02*
G37*
G36*
X1055370D02*
X1051390D01*
X1049911Y866470D01*
X1048658Y865632D01*
X1047820Y864379D01*
X1047526Y862900D01*
Y860420D01*
X1055370D01*
Y866764D01*
D02*
G37*
G36*
X1065754Y857880D02*
X1057910D01*
Y851536D01*
X1061890D01*
X1063369Y851830D01*
X1064622Y852668D01*
X1065460Y853921D01*
X1065754Y855400D01*
Y857880D01*
D02*
G37*
G36*
X1041650Y860359D02*
X1034920D01*
Y854710D01*
Y849062D01*
X1041650D01*
X1043812Y849491D01*
X1045644Y850716D01*
X1046869Y852548D01*
X1046947Y852942D01*
X1048295Y853210D01*
X1048658Y852668D01*
X1049911Y851830D01*
X1051390Y851536D01*
X1055370D01*
Y857880D01*
X1046557D01*
X1046256Y857789D01*
X1045644Y858704D01*
X1043812Y859929D01*
X1041650Y860359D01*
D02*
G37*
G36*
X933500Y847577D02*
X930879Y847232D01*
X928437Y846220D01*
X926339Y844611D01*
X924730Y842513D01*
X923718Y840071D01*
X923373Y837450D01*
X923718Y834829D01*
X924730Y832387D01*
X926339Y830289D01*
X928437Y828680D01*
X930879Y827668D01*
X933500Y827323D01*
X936121Y827668D01*
X938563Y828680D01*
X940661Y830289D01*
X942270Y832387D01*
X943282Y834829D01*
X943627Y837450D01*
X943282Y840071D01*
X942270Y842513D01*
X940661Y844611D01*
X938563Y846220D01*
X936121Y847232D01*
X933500Y847577D01*
D02*
G37*
G36*
X984380Y822259D02*
X977650D01*
X975488Y821829D01*
X973656Y820604D01*
X972431Y818772D01*
X972357Y818397D01*
X971009Y818129D01*
X970732Y818542D01*
X969479Y819380D01*
X968000Y819674D01*
X957500D01*
X957454Y819665D01*
X940068D01*
X938563Y820820D01*
X936121Y821832D01*
X933500Y822177D01*
X930879Y821832D01*
X928437Y820820D01*
X926339Y819211D01*
X924730Y817113D01*
X923718Y814671D01*
X923373Y812050D01*
X923718Y809429D01*
X924730Y806987D01*
X926339Y804889D01*
X928437Y803280D01*
X930879Y802268D01*
X933500Y801923D01*
X936121Y802268D01*
X938563Y803280D01*
X940094Y804455D01*
X957454D01*
X957500Y804446D01*
X968000D01*
X969479Y804740D01*
X970732Y805578D01*
X971570Y806831D01*
X971864Y808310D01*
Y813011D01*
X973134Y813397D01*
X973656Y812616D01*
X975488Y811391D01*
X977650Y810962D01*
X984380D01*
Y816610D01*
Y822259D01*
D02*
G37*
G36*
X993650D02*
X986920D01*
Y817880D01*
X999046D01*
X998869Y818772D01*
X997644Y820604D01*
X995812Y821829D01*
X993650Y822259D01*
D02*
G37*
G36*
X999046Y815340D02*
X986920D01*
Y810962D01*
X993650D01*
X995812Y811391D01*
X997644Y812616D01*
X998869Y814448D01*
X999046Y815340D01*
D02*
G37*
G36*
X1035040Y803790D02*
X1026270D01*
Y795020D01*
X1035040D01*
Y803790D01*
D02*
G37*
G36*
X1023730D02*
X1014960D01*
Y795020D01*
X1023730D01*
Y803790D01*
D02*
G37*
G36*
X1035040Y792480D02*
X1026270D01*
Y783710D01*
X1035040D01*
Y792480D01*
D02*
G37*
G36*
X1023730D02*
X1014960D01*
Y783710D01*
X1023730D01*
Y792480D01*
D02*
G37*
G36*
X999600Y803877D02*
X996979Y803532D01*
X994537Y802520D01*
X992439Y800911D01*
X990830Y798813D01*
X989818Y796371D01*
X989473Y793750D01*
X989818Y791129D01*
X990830Y788687D01*
X992439Y786589D01*
X994537Y784980D01*
X996979Y783968D01*
X999600Y783623D01*
X1002221Y783968D01*
X1004663Y784980D01*
X1006761Y786589D01*
X1008370Y788687D01*
X1009382Y791129D01*
X1009727Y793750D01*
X1009382Y796371D01*
X1008370Y798813D01*
X1006761Y800911D01*
X1004663Y802520D01*
X1002221Y803532D01*
X999600Y803877D01*
D02*
G37*
%LPD*%
D10*
X985650Y854710D02*
D03*
Y842010D02*
D03*
Y829310D02*
D03*
Y816610D02*
D03*
X1033650Y854710D02*
D03*
Y842010D02*
D03*
Y829310D02*
D03*
Y816610D02*
D03*
D11*
X962750Y829310D02*
D03*
Y812060D02*
D03*
X1074750Y824750D02*
D03*
Y842000D02*
D03*
X1056640Y859150D02*
D03*
Y841900D02*
D03*
D12*
X1074750Y809250D02*
D03*
Y791250D02*
D03*
X1056000Y816500D02*
D03*
Y798500D02*
D03*
D13*
X1074750Y780500D02*
Y791250D01*
X1072000Y777750D02*
X1074750Y780500D01*
X1062000Y777750D02*
X1072000D01*
X1056000Y783750D02*
X1062000Y777750D01*
X1056000Y783750D02*
Y798500D01*
X1007881Y854710D02*
X1010549Y852042D01*
X985650Y854710D02*
X1007881D01*
X1028000Y872250D02*
Y877500D01*
X1019250Y863500D02*
X1028000Y872250D01*
X970750Y863500D02*
X1019250D01*
X962750Y855500D02*
X970750Y863500D01*
X962750Y829310D02*
Y855500D01*
X985650Y842010D02*
X1002990D01*
X1015690Y829310D02*
X1033650D01*
X1002990Y842010D02*
X1015690Y829310D01*
X962750D02*
X985650D01*
X1056640Y841900D02*
X1074650D01*
X1056530Y842010D02*
X1056640Y841900D01*
X1033650Y842010D02*
X1056530D01*
X1033650Y816610D02*
X1033760Y816500D01*
X1033650Y829310D02*
X1070190D01*
X1074750Y824750D01*
X1033650Y816610D02*
X1055890D01*
X1056000Y816500D01*
D14*
X933500Y812050D02*
X933510Y812060D01*
X962750D01*
X1074750Y809250D02*
Y824750D01*
D15*
X1002600Y877500D02*
D03*
X999600Y793750D02*
D03*
X933500Y812050D02*
D03*
Y837450D02*
D03*
D16*
X1028000Y877500D02*
D03*
X1025000Y793750D02*
D03*
D17*
X1062000Y777750D02*
D03*
X1010549Y852042D02*
D03*
M02*
