G04 Layer_Physical_Order=2*
G04 Layer_Color=16711680*
%FSLAX44Y44*%
%MOMM*%
G71*
G01*
G75*
%ADD13C,0.5000*%
%ADD15C,1.5000*%
%ADD16R,1.5000X1.5000*%
%ADD17C,1.2700*%
G36*
X1086000Y769000D02*
X1067286D01*
X1066855Y770270D01*
X1068340Y771410D01*
X1069765Y773267D01*
X1070661Y775429D01*
X1070799Y776480D01*
X1053201D01*
X1053339Y775429D01*
X1054235Y773267D01*
X1055660Y771410D01*
X1057145Y770270D01*
X1056714Y769000D01*
X911500D01*
Y892500D01*
X1086000D01*
Y769000D01*
D02*
G37*
%LPC*%
G36*
X1003870Y887459D02*
Y878770D01*
X1012559D01*
X1012382Y880121D01*
X1011370Y882563D01*
X1009761Y884661D01*
X1007663Y886270D01*
X1005221Y887282D01*
X1003870Y887459D01*
D02*
G37*
G36*
X1001330Y887459D02*
X999979Y887282D01*
X997537Y886270D01*
X995439Y884661D01*
X993830Y882563D01*
X992818Y880121D01*
X992641Y878770D01*
X1001330D01*
Y887459D01*
D02*
G37*
G36*
Y876230D02*
X992641D01*
X992818Y874879D01*
X993830Y872437D01*
X995439Y870339D01*
X997537Y868730D01*
X999979Y867718D01*
X1001330Y867541D01*
Y876230D01*
D02*
G37*
G36*
X1012559D02*
X1003870D01*
Y867541D01*
X1005221Y867718D01*
X1007663Y868730D01*
X1009761Y870339D01*
X1011370Y872437D01*
X1012382Y874879D01*
X1012559Y876230D01*
D02*
G37*
G36*
X1038040Y887540D02*
X1017960D01*
Y867460D01*
X1038040D01*
Y887540D01*
D02*
G37*
G36*
X1011819Y860841D02*
Y853312D01*
X1019349D01*
X1019211Y854362D01*
X1018315Y856525D01*
X1016890Y858382D01*
X1015033Y859807D01*
X1012870Y860703D01*
X1011819Y860841D01*
D02*
G37*
G36*
X1009279D02*
X1008229Y860703D01*
X1006066Y859807D01*
X1004209Y858382D01*
X1002784Y856525D01*
X1001888Y854362D01*
X1001750Y853312D01*
X1009279D01*
Y860841D01*
D02*
G37*
G36*
X1019349Y850772D02*
X1011819D01*
Y843242D01*
X1012870Y843380D01*
X1015033Y844276D01*
X1016890Y845701D01*
X1018315Y847558D01*
X1019211Y849721D01*
X1019349Y850772D01*
D02*
G37*
G36*
X1009279D02*
X1001750D01*
X1001888Y849721D01*
X1002784Y847558D01*
X1004209Y845701D01*
X1006066Y844276D01*
X1008229Y843380D01*
X1009279Y843242D01*
Y850772D01*
D02*
G37*
G36*
X934770Y847409D02*
Y838720D01*
X943459D01*
X943282Y840071D01*
X942270Y842513D01*
X940661Y844611D01*
X938563Y846220D01*
X936121Y847232D01*
X934770Y847409D01*
D02*
G37*
G36*
X932230Y847409D02*
X930879Y847232D01*
X928437Y846220D01*
X926339Y844611D01*
X924730Y842513D01*
X923718Y840071D01*
X923541Y838720D01*
X932230D01*
Y847409D01*
D02*
G37*
G36*
Y836180D02*
X923541D01*
X923718Y834829D01*
X924730Y832387D01*
X926339Y830289D01*
X928437Y828680D01*
X930879Y827668D01*
X932230Y827491D01*
Y836180D01*
D02*
G37*
G36*
X943459D02*
X934770D01*
Y827490D01*
X936121Y827668D01*
X938563Y828680D01*
X940661Y830289D01*
X942270Y832387D01*
X943282Y834829D01*
X943459Y836180D01*
D02*
G37*
G36*
X933500Y822177D02*
X930879Y821832D01*
X928437Y820820D01*
X926339Y819211D01*
X924730Y817113D01*
X923718Y814671D01*
X923373Y812050D01*
X923718Y809429D01*
X924730Y806987D01*
X926339Y804889D01*
X928437Y803280D01*
X930879Y802268D01*
X933500Y801923D01*
X936121Y802268D01*
X938563Y803280D01*
X940661Y804889D01*
X942270Y806987D01*
X943282Y809429D01*
X943627Y812050D01*
X943282Y814671D01*
X942270Y817113D01*
X940661Y819211D01*
X938563Y820820D01*
X936121Y821832D01*
X933500Y822177D01*
D02*
G37*
G36*
X1000870Y803709D02*
Y795020D01*
X1009559D01*
X1009382Y796371D01*
X1008370Y798813D01*
X1006761Y800911D01*
X1004663Y802520D01*
X1002221Y803532D01*
X1000870Y803709D01*
D02*
G37*
G36*
X998330Y803709D02*
X996979Y803532D01*
X994537Y802520D01*
X992439Y800911D01*
X990830Y798813D01*
X989818Y796371D01*
X989641Y795020D01*
X998330D01*
Y803709D01*
D02*
G37*
G36*
X1009559Y792480D02*
X1000870D01*
Y783791D01*
X1002221Y783968D01*
X1004663Y784980D01*
X1006761Y786589D01*
X1008370Y788687D01*
X1009382Y791129D01*
X1009559Y792480D01*
D02*
G37*
G36*
X998330D02*
X989641D01*
X989818Y791129D01*
X990830Y788687D01*
X992439Y786589D01*
X994537Y784980D01*
X996979Y783968D01*
X998330Y783791D01*
Y792480D01*
D02*
G37*
G36*
X1035040Y803790D02*
X1014960D01*
Y783710D01*
X1035040D01*
Y803790D01*
D02*
G37*
G36*
X1063270Y786550D02*
Y779020D01*
X1070799D01*
X1070661Y780071D01*
X1069765Y782233D01*
X1068340Y784090D01*
X1066483Y785515D01*
X1064321Y786411D01*
X1063270Y786550D01*
D02*
G37*
G36*
X1060730D02*
X1059679Y786411D01*
X1057517Y785515D01*
X1055660Y784090D01*
X1054235Y782233D01*
X1053339Y780071D01*
X1053201Y779020D01*
X1060730D01*
Y786550D01*
D02*
G37*
%LPD*%
D13*
X1010549Y852042D02*
X1010758Y852250D01*
D15*
X1002600Y877500D02*
D03*
X999600Y793750D02*
D03*
X933500Y812050D02*
D03*
Y837450D02*
D03*
D16*
X1028000Y877500D02*
D03*
X1025000Y793750D02*
D03*
D17*
X1062000Y777750D02*
D03*
X1010549Y852042D02*
D03*
M02*
