G04 Layer_Color=8388736*
%FSLAX44Y44*%
%MOMM*%
G71*
G01*
G75*
%ADD23O,2.4032X0.8032*%
G04:AMPARAMS|DCode=24|XSize=1.5032mm|YSize=1.2032mm|CornerRadius=0.2266mm|HoleSize=0mm|Usage=FLASHONLY|Rotation=0.000|XOffset=0mm|YOffset=0mm|HoleType=Round|Shape=RoundedRectangle|*
%AMROUNDEDRECTD24*
21,1,1.5032,0.7500,0,0,0.0*
21,1,1.0500,1.2032,0,0,0.0*
1,1,0.4532,0.5250,-0.3750*
1,1,0.4532,-0.5250,-0.3750*
1,1,0.4532,-0.5250,0.3750*
1,1,0.4532,0.5250,0.3750*
%
%ADD24ROUNDEDRECTD24*%
G04:AMPARAMS|DCode=25|XSize=1.6032mm|YSize=1.2032mm|CornerRadius=0.2266mm|HoleSize=0mm|Usage=FLASHONLY|Rotation=180.000|XOffset=0mm|YOffset=0mm|HoleType=Round|Shape=RoundedRectangle|*
%AMROUNDEDRECTD25*
21,1,1.6032,0.7500,0,0,180.0*
21,1,1.1500,1.2032,0,0,180.0*
1,1,0.4532,-0.5750,0.3750*
1,1,0.4532,0.5750,0.3750*
1,1,0.4532,0.5750,-0.3750*
1,1,0.4532,-0.5750,-0.3750*
%
%ADD25ROUNDEDRECTD25*%
%ADD26C,1.7032*%
%ADD27R,1.7032X1.7032*%
%ADD28C,1.4732*%
D23*
X985650Y854710D02*
D03*
Y842010D02*
D03*
Y829310D02*
D03*
Y816610D02*
D03*
X1033650Y854710D02*
D03*
Y842010D02*
D03*
Y829310D02*
D03*
Y816610D02*
D03*
D24*
X962750Y829310D02*
D03*
Y812060D02*
D03*
X1074750Y824750D02*
D03*
Y842000D02*
D03*
X1056640Y859150D02*
D03*
Y841900D02*
D03*
D25*
X1074750Y809250D02*
D03*
Y791250D02*
D03*
X1056000Y816500D02*
D03*
Y798500D02*
D03*
D26*
X1002600Y877500D02*
D03*
X999600Y793750D02*
D03*
X933500Y812050D02*
D03*
Y837450D02*
D03*
D27*
X1028000Y877500D02*
D03*
X1025000Y793750D02*
D03*
D28*
X1062000Y777750D02*
D03*
X1010549Y852042D02*
D03*
M02*
